<svg viewBox="0 0 24 18.0034" xmlns="http://www.w3.org/2000/svg" xmlns:xlink="http://www.w3.org/1999/xlink" width="24.000000" height="18.003380" fill="none" customFrame="#000000">
	<path id="icon" d="M3.2 18.0019C2.38106 18.0289 1.58472 17.7306 0.985082 17.1722C0.385441 16.6138 0.0312723 15.8407 1.11022e-16 15.0219L0 2.98092C0.0315299 2.1623 0.385811 1.38945 0.985424 0.83125C1.58504 0.273048 2.38122 -0.0251144 3.2 0.00191906L20.8 0.00191906C21.6188 -0.0251144 22.415 0.273048 23.0146 0.83125C23.6142 1.38945 23.9685 2.1623 24 2.98092L24 15.0219C23.9687 15.8407 23.6146 16.6138 23.0149 17.1722C22.4153 17.7306 21.6189 18.0289 20.8 18.0019L3.2 18.0019ZM2 15.0219C2.02748 15.316 2.16784 15.588 2.39159 15.7808C2.61534 15.9736 2.90509 16.0722 3.2 16.0559L20.8 16.0559C21.0949 16.0722 21.3847 15.9736 21.6084 15.7808C21.8322 15.588 21.9725 15.316 22 15.0219L22 6.83092L12.606 13.7969C12.4303 13.9259 12.218 13.9955 12 13.9955C11.782 13.9955 11.5697 13.9259 11.394 13.7969L2 6.83092L2 15.0219ZM12 11.8019L22 4.38392L22 2.98392C21.9723 2.69002 21.8318 2.41828 21.6081 2.22569C21.3844 2.0331 21.0948 1.93462 20.8 1.95092L3.2 1.95092C2.90572 1.93457 2.61652 2.03264 2.39287 2.2246C2.16922 2.41656 2.02845 2.68756 2 2.98092L2 4.38092L12 11.8019Z" fill="rgb(185,39,112)" fill-rule="nonzero" />
</svg>
