<svg viewBox="0 0 20 20" xmlns="http://www.w3.org/2000/svg" xmlns:xlink="http://www.w3.org/1999/xlink" width="20.000000" height="20.000000" fill="none" customFrame="#000000">
	<path id="facebook" d="M16.4173 5.92119e-16L3.484 5.92119e-16C2.56133 0.0131837 1.68039 0.386664 1.02939 1.04065C0.378396 1.69464 0.00895596 2.57728 2.22045e-16 3.5L0 16.6C0.0298877 17.5065 0.408936 18.3664 1.05794 19C1.70695 19.6336 2.5757 19.9919 3.48267 20L10.448 20L10.448 12.9L8.45733 12.9L8.45733 9.9L10.448 9.9L10.448 8C10.4457 7.5147 10.5394 7.03374 10.7236 6.58476C10.9078 6.13579 11.1789 5.72764 11.5214 5.3838C11.8639 5.03996 12.271 4.7672 12.7192 4.58121C13.1674 4.39521 13.648 4.29964 14.1333 4.3L16.5213 4.3L16.5213 7.3L14.1333 7.3C13.9257 7.31376 13.7301 7.40247 13.583 7.54962C13.4358 7.69677 13.3471 7.89235 13.3333 8.1L13.3333 10L15.92 10L15.92 13L13.4333 13L13.4333 20L16.5173 20C17.4398 19.9865 18.3204 19.6128 18.9711 18.9589C19.6218 18.3049 19.9911 17.4225 20 16.5L20 3.5C19.9521 2.57308 19.5568 1.6982 18.8929 1.04959C18.229 0.40099 17.3451 0.0262495 16.4173 5.92119e-16Z" fill="rgb(0,0,0)" fill-rule="nonzero" />
</svg>
